# xmcd
#
# Track frame offsets: 
#        150
#        23223
#        44365
#        69269
#
# Disc length: 1262 seconds
#
# Revision: 0
# Processed by: cddbd v1.5.2PL0 Copyright (c) Steve Scherf et al.
# Submitted via: ExactAudioCopy v1.0b1
#
DISCID=2b04ec04
DTITLE=The Cherryfire Ashes - Wireworks EP
DYEAR=2000
DGENRE=Indie
TTITLE0=Sparks and Spooks
TTITLE1=The Furnace
TTITLE2=Kiowa
TTITLE3=The Lord Ship
EXTD=
EXTT0=
EXTT1=
EXTT2=
EXTT3=
PLAYORDER=
